<?xml version="1.0" standalone="no"?>
<!DOCTYPE svg PUBLIC "-//W3C//DTD SVG 20010904//EN"
 "http://www.w3.org/TR/2001/REC-SVG-20010904/DTD/svg10.dtd">
<svg version="1.0" xmlns="http://www.w3.org/2000/svg"
 width="211.000000pt" height="211.000000pt" viewBox="0 0 211.000000 211.000000"
 preserveAspectRatio="xMidYMid meet">
<metadata>
Created by potrace 1.14, written by Peter Selinger 2001-2017
</metadata>
<g transform="translate(0.000000,211.000000) scale(0.100000,-0.100000)"
fill="#000000" stroke="none">
<path d="M350 1572 l0 -108 140 1 140 1 1 -26 c4 -157 0 -636 -5 -673 -15
-102 -67 -152 -154 -149 -60 2 -112 60 -139 152 -8 30 -18 58 -22 62 -3 4 -26
3 -51 -2 -25 -4 -67 -11 -95 -14 -118 -15 -116 -14 -110 -55 26 -166 156 -313
305 -346 54 -12 153 -13 212 -3 58 10 150 48 174 72 8 9 21 19 28 23 20 12 86
109 79 116 -3 4 -2 7 4 7 13 0 33 70 40 139 7 77 6 478 -1 490 -4 5 -3 12 1
14 6 4 9 266 4 385 l-1 22 -275 0 -275 0 0 -108z"/>
<path d="M1500 1572 l0 -108 136 1 c75 0 138 -3 140 -7 11 -17 5 -675 -6 -719
-13 -51 -53 -103 -89 -114 -95 -29 -160 20 -201 153 -14 44 -22 57 -37 55 -53
-6 -111 -14 -138 -18 -16 -3 -43 -7 -59 -10 -16 -2 -33 -8 -38 -13 -11 -11 16
-111 48 -175 42 -83 150 -175 228 -194 231 -56 438 20 519 190 47 98 50 132
49 591 0 237 -1 441 -1 453 l-1 22 -275 1 -275 0 0 -108z"/>
</g>
</svg>
